<?xml version="1.0" standalone="no"?>
<!DOCTYPE svg PUBLIC "-//W3C//DTD SVG 20010904//EN"
 "http://www.w3.org/TR/2001/REC-SVG-20010904/DTD/svg10.dtd">
<svg version="1.0" xmlns="http://www.w3.org/2000/svg"
 width="1280.000000pt" height="1280.000000pt" viewBox="0 0 1280.000000 1280.000000"
 preserveAspectRatio="xMidYMid meet">
<metadata>
Created by potrace 1.11, written by Peter Selinger 2001-2013
</metadata>
<g transform="translate(0.000000,1280.000000) scale(0.100000,-0.100000)"
fill="#000000" stroke="none">
<path d="M4746 12643 c-4 -4 -35 -8 -69 -9 -64 -1 -194 -12 -237 -20 -14 -2
-45 -7 -70 -10 -25 -3 -81 -15 -125 -26 -44 -11 -88 -20 -97 -20 -10 1 -18 -4
-18 -9 0 -6 -4 -8 -9 -5 -9 6 -215 -59 -293 -92 -25 -11 -49 -18 -52 -15 -3 4
-6 1 -6 -5 0 -6 -17 -16 -37 -22 -21 -7 -90 -40 -153 -73 -63 -33 -125 -65
-137 -71 -13 -6 -23 -14 -23 -18 0 -5 -6 -8 -14 -8 -8 0 -21 -6 -28 -12 -7 -7
-53 -40 -103 -72 -87 -57 -243 -177 -314 -240 -98 -88 -313 -309 -371 -382
-63 -79 -96 -121 -105 -131 -5 -6 -28 -37 -50 -68 -22 -32 -61 -87 -87 -124
-27 -36 -48 -69 -48 -74 0 -5 -11 -23 -24 -40 -24 -31 -39 -57 -99 -167 -17
-30 -34 -56 -39 -58 -4 -2 -8 -9 -8 -15 1 -15 -62 -141 -72 -145 -5 -2 -8 -10
-8 -17 0 -8 -18 -51 -39 -97 -40 -85 -120 -278 -126 -307 -6 -23 -35 -103 -43
-115 -3 -6 -7 -17 -8 -26 -1 -14 -27 -102 -41 -140 -4 -8 -7 -19 -8 -25 -2 -5
-13 -48 -25 -95 -28 -108 -31 -121 -35 -145 -1 -11 -8 -38 -13 -60 -6 -22 -14
-53 -17 -70 -2 -16 -7 -43 -10 -60 -3 -16 -11 -57 -16 -90 -6 -33 -13 -71 -14
-85 -1 -14 -6 -43 -9 -65 -11 -69 -18 -138 -19 -187 -1 -27 -4 -48 -7 -48 -5
0 -10 -90 -13 -237 -1 -35 -5 -63 -10 -63 -4 0 -5 -6 0 -12 10 -16 10 -37 2
-64 -4 -11 -3 -27 1 -34 5 -8 4 -22 -1 -32 -6 -12 -6 -18 0 -18 7 0 7 -8 1
-24 -5 -13 -6 -27 -3 -30 3 -3 7 -43 8 -88 3 -88 13 -210 22 -268 3 -19 7 -48
8 -65 3 -34 13 -99 20 -131 3 -12 7 -39 10 -60 4 -21 8 -47 11 -56 3 -10 8
-30 10 -45 3 -16 17 -73 31 -128 13 -55 27 -111 29 -123 4 -20 74 -237 91
-282 3 -8 8 -24 10 -35 2 -11 8 -24 13 -29 6 -6 10 -18 10 -28 0 -10 4 -26 9
-36 16 -29 36 -87 33 -94 -1 -5 2 -8 7 -8 4 0 14 -20 21 -45 7 -25 17 -45 22
-45 5 0 7 -4 4 -8 -2 -4 4 -28 15 -52 11 -25 20 -46 20 -47 0 -2 13 -29 28
-60 16 -32 54 -112 86 -178 32 -66 61 -122 64 -125 3 -3 26 -45 51 -95 24 -49
47 -92 50 -95 3 -3 13 -21 23 -40 21 -41 62 -111 74 -125 4 -6 19 -30 32 -55
14 -25 39 -67 58 -95 18 -27 33 -55 33 -62 0 -7 5 -13 10 -13 6 0 16 -12 23
-27 6 -16 17 -32 24 -36 7 -4 13 -13 13 -18 0 -12 80 -133 92 -137 4 -2 8 -9
8 -15 0 -7 17 -34 38 -62 20 -27 77 -106 126 -175 50 -69 94 -130 100 -136 6
-7 20 -24 31 -40 27 -37 128 -168 135 -174 3 -3 18 -23 35 -45 16 -22 54 -69
85 -106 30 -36 69 -83 87 -105 45 -55 85 -103 106 -128 11 -11 40 -45 65 -75
26 -30 61 -69 77 -87 17 -17 46 -51 65 -74 19 -23 58 -66 85 -95 28 -30 93
-100 145 -156 52 -56 183 -192 290 -302 107 -109 195 -202 196 -205 0 -4 4
-23 8 -42 4 -19 8 -42 10 -50 1 -8 5 -24 9 -35 3 -11 8 -33 11 -48 15 -89 50
-154 102 -189 37 -25 94 -42 94 -28 0 4 13 5 28 2 22 -3 28 -9 30 -30 2 -31 9
-75 16 -112 3 -14 7 -43 10 -65 5 -36 12 -71 31 -170 3 -16 10 -46 15 -65 5
-19 11 -46 14 -60 3 -14 12 -50 21 -80 9 -30 18 -62 20 -70 35 -129 110 -318
196 -495 24 -49 44 -92 44 -95 0 -3 12 -23 26 -45 13 -22 30 -51 37 -65 7 -14
23 -43 37 -65 14 -22 28 -47 32 -55 4 -8 24 -41 45 -73 21 -32 38 -61 38 -63
0 -3 14 -25 30 -49 16 -24 30 -46 30 -50 0 -3 9 -15 19 -27 11 -11 26 -32 33
-47 7 -14 35 -59 61 -99 26 -40 47 -76 47 -81 0 -5 7 -14 15 -21 8 -7 27 -36
42 -66 15 -30 30 -54 34 -54 6 0 31 -60 28 -69 0 -2 3 -7 8 -10 10 -6 74 -135
114 -226 22 -52 61 -166 80 -239 11 -40 14 -55 24 -106 3 -14 7 -34 9 -45 20
-105 29 -215 28 -363 -1 -117 1 -132 16 -133 9 0 81 -2 160 -4 l142 -4 1 52
c1 29 1 104 0 167 -2 105 1 121 25 175 41 94 47 109 46 118 -1 4 3 7 9 7 5 0
7 5 3 11 -3 6 -2 14 3 18 5 3 37 63 72 132 34 70 72 143 86 163 13 20 22 36
18 36 -3 0 1 8 9 18 8 9 32 46 53 82 21 36 42 67 45 70 4 3 15 20 24 38 9 17
21 32 27 32 6 0 8 4 4 9 -3 6 3 14 12 20 10 6 15 11 11 11 -9 0 59 91 76 102
6 4 8 8 4 8 -7 0 219 290 260 335 74 79 272 358 346 487 54 93 141 284 138
300 -1 5 2 8 6 8 5 0 15 25 22 55 7 30 16 55 20 55 4 0 7 6 8 13 0 6 16 68 36
137 20 69 38 142 40 162 2 20 7 41 10 46 3 4 8 31 12 58 8 62 21 97 33 89 6
-3 31 0 58 6 36 10 59 25 98 65 57 60 70 75 75 89 1 6 14 27 26 47 13 21 24
42 24 48 0 5 4 10 10 10 5 0 12 10 15 23 4 14 45 48 116 95 60 39 113 72 119
72 5 0 10 5 10 10 0 6 4 10 10 10 5 0 41 22 80 50 39 27 72 50 75 50 3 0 11 5
18 10 24 20 87 67 209 152 125 89 350 257 391 293 7 6 48 40 92 75 44 36 85
70 91 75 6 6 28 24 49 40 21 17 53 44 70 60 47 43 103 93 169 150 53 46 101
91 311 294 86 83 306 317 347 368 16 21 37 45 46 54 26 25 158 184 187 224 11
16 54 71 95 124 41 53 89 116 105 141 16 25 34 48 40 52 5 4 7 8 3 8 -5 0 0 9
10 19 32 37 42 50 42 61 0 5 4 10 8 10 5 0 16 16 25 36 10 19 22 40 27 47 15
17 51 74 90 141 19 32 42 70 51 85 8 14 31 55 50 91 18 36 36 67 39 70 3 3 6
12 8 20 2 8 10 22 19 32 8 9 16 22 17 30 1 7 10 28 19 45 10 18 17 35 17 38 0
3 15 36 34 73 27 53 95 216 101 242 1 3 7 19 14 35 6 17 16 41 21 55 6 14 12
34 14 45 8 41 11 50 18 56 5 3 9 17 10 32 1 15 5 27 9 27 3 0 6 6 7 13 0 6 3
22 6 35 6 22 14 55 21 82 2 8 4 15 5 15 3 0 11 38 16 75 3 19 8 42 11 50 3 8
7 20 7 25 1 6 6 30 11 55 5 25 10 53 11 63 1 9 3 18 4 20 2 2 4 13 15 112 3
33 9 76 11 95 31 212 36 752 9 940 -5 36 -18 141 -20 170 -2 14 -6 41 -9 60
-4 19 -8 49 -10 65 -2 17 -8 43 -12 60 -4 16 -8 41 -10 55 -1 14 -3 25 -4 25
-3 0 -12 41 -13 68 -1 15 -4 27 -7 27 -3 0 -7 12 -8 26 -1 15 -6 32 -12 39 -5
6 -7 14 -5 17 3 3 1 18 -6 34 -6 16 -12 38 -13 49 -3 19 -21 83 -33 115 -3 8
-8 23 -9 32 -11 52 -127 350 -165 419 -10 20 -19 42 -19 49 0 6 -7 18 -15 26
-8 9 -15 24 -15 35 0 10 -5 19 -11 19 -5 0 -8 3 -6 8 2 4 -4 21 -14 37 -11 17
-24 42 -30 58 -6 15 -15 27 -19 27 -4 0 -11 11 -14 24 -3 14 -12 31 -19 38 -7
7 -18 24 -25 38 -7 14 -21 39 -32 55 -11 17 -25 40 -31 53 -7 12 -16 22 -21
22 -4 0 -8 5 -8 10 0 20 -180 256 -269 354 -123 133 -304 302 -368 343 -15 10
-34 26 -41 35 -7 10 -19 18 -27 18 -7 0 -15 4 -17 9 -6 15 -293 196 -308 194
-3 0 -17 8 -32 19 -16 11 -28 16 -28 12 0 -4 -9 1 -19 10 -11 10 -25 19 -33
20 -7 1 -34 12 -60 24 -26 12 -50 22 -53 22 -4 0 -21 7 -38 15 -85 39 -304
104 -437 129 -8 1 -28 5 -45 9 -16 4 -48 9 -70 11 -22 3 -62 8 -90 12 -102 13
-362 19 -465 10 -68 -6 -162 -16 -190 -21 -14 -3 -41 -7 -60 -10 -19 -3 -75
-15 -125 -26 -49 -11 -100 -22 -112 -25 -37 -7 -260 -82 -306 -102 -45 -20
-79 -34 -87 -37 -3 0 -31 -13 -63 -28 -32 -15 -60 -27 -62 -27 -2 0 -26 -13
-53 -29 -49 -28 -49 -29 -63 -9 -8 11 -19 26 -24 32 -6 6 -24 29 -40 51 -30
40 -47 62 -75 95 -8 9 -33 39 -55 65 -44 53 -278 290 -338 343 -65 57 -220
175 -297 227 -41 28 -77 52 -80 55 -7 8 -134 82 -240 141 -14 7 -27 14 -30 14
-3 0 -30 12 -60 27 -119 58 -293 124 -420 159 -25 7 -49 14 -55 15 -5 2 -21 5
-35 9 -14 3 -50 11 -81 18 -31 8 -63 13 -72 11 -10 -1 -17 1 -17 5 0 4 -12 8
-27 9 -16 1 -41 3 -58 6 -72 10 -155 18 -215 20 -36 1 -71 6 -78 10 -7 4 -12
3 -12 -2 0 -10 -30 -10 -46 0 -5 4 -16 3 -24 -2 -8 -5 -19 -5 -26 0 -6 6 -14
7 -18 3z m1507 -7902 c-2 -6 1 -11 5 -11 5 0 19 -22 32 -50 13 -27 27 -50 32
-50 4 0 8 -5 8 -10 0 -13 81 -144 92 -148 4 -2 8 -8 8 -12 0 -9 70 -124 90
-147 5 -7 10 -17 10 -23 0 -5 5 -10 11 -10 5 0 8 -4 5 -9 -3 -4 6 -21 19 -37
14 -16 25 -34 25 -41 0 -6 4 -13 8 -15 11 -4 72 -94 72 -106 0 -6 4 -12 8 -14
7 -2 169 -235 207 -296 6 -9 15 -21 20 -28 34 -40 45 -55 45 -61 0 -3 19 -31
42 -61 39 -52 41 -59 43 -131 3 -105 15 -204 26 -215 5 -6 9 -17 9 -26 0 -28
72 -86 115 -94 66 -12 72 -15 69 -39 -1 -12 -3 -22 -4 -22 -2 0 -4 -9 -6 -20
-1 -11 -5 -33 -9 -50 -3 -16 -8 -43 -11 -60 -3 -16 -20 -79 -36 -140 -16 -60
-31 -114 -32 -120 -2 -5 -7 -21 -13 -35 -6 -14 -16 -43 -24 -65 -8 -22 -16
-42 -19 -45 -3 -3 -6 -12 -8 -20 -4 -20 -97 -206 -127 -255 -14 -22 -28 -47
-32 -55 -4 -8 -9 -17 -13 -20 -3 -3 -25 -34 -49 -70 -24 -36 -47 -67 -50 -70
-4 -3 -25 -30 -46 -60 -22 -30 -47 -64 -57 -75 -101 -121 -177 -215 -203 -251
-11 -15 -25 -32 -30 -38 -6 -6 -45 -58 -88 -116 -42 -58 -84 -114 -93 -125 -9
-11 -21 -30 -27 -42 -5 -13 -14 -23 -19 -23 -4 0 -8 -4 -8 -10 0 -8 -37 -70
-58 -95 -4 -5 -11 -17 -15 -25 -4 -8 -16 -28 -27 -45 -11 -16 -23 -37 -27 -45
-40 -77 -96 -169 -102 -166 -4 3 -14 24 -21 48 -7 24 -17 48 -22 54 -5 7 -11
22 -13 35 -3 12 -10 26 -16 29 -6 4 -9 9 -8 11 6 7 -54 139 -63 139 -5 0 -7 4
-3 9 3 5 -1 15 -8 23 -7 7 -19 28 -27 46 -7 19 -30 61 -52 93 -21 33 -38 62
-38 64 0 3 -36 61 -80 131 -44 69 -80 130 -80 135 0 5 -4 9 -8 9 -5 0 -15 12
-23 28 -7 15 -35 59 -61 98 -27 39 -48 74 -48 77 0 3 -13 26 -30 50 -16 25
-30 49 -30 55 0 6 -3 12 -7 14 -14 5 -137 246 -224 433 -12 27 -80 216 -84
235 -2 8 -8 27 -14 43 -6 15 -8 27 -5 27 3 0 2 6 -3 13 -9 14 -13 29 -20 75
-3 17 -10 32 -16 32 -6 0 -8 2 -5 5 3 3 1 27 -4 53 -6 26 -11 56 -13 67 -2 11
-7 31 -10 45 -6 23 -9 45 -18 111 -2 14 -8 32 -12 39 -6 9 -4 11 6 5 11 -7 12
-6 3 6 -5 8 -11 29 -13 47 -2 27 1 32 21 33 72 2 118 30 162 98 49 75 108 214
115 271 0 6 45 52 98 103 157 150 512 507 598 602 44 49 91 100 104 114 33 36
134 151 163 183 22 27 46 32 41 9z"/>
</g>
</svg>
